/* XPM */
static char * grass_xpm[] = {
"32 32 5 1",
" 	c #5A811D",
".	c #689A1B",
"+	c #345107",
"@	c #4B6423",
"#	c #546736",
"   .   ++   .           ..      ",
"    .+++   ++.           +      ",
"  @       +             . + ..  ",
"++@.    ..+     .  @    . + .   ",
" + @.   @.    @@.   @  .   @ @@ ",
"  + .   @..  ++ .    +    @@  @ ",
"  .. .++  . .         +  @@   @ ",
"   .   +     .                  ",
"+                               ",
" +. # .@    @ @  .           +  ",
"  . @@. @  +  @@ .  @    @@ @+  ",
"   . @..@  +   @  .@  . @    +  ",
"     @  @  +   @   @  .@ ..  +  ",
".    ++         +     .    .    ",
".     . @     @  ++         .   ",
" . @@ . @@     @    @+          ",
"    @ .  @     @@    +    @@    ",
"                 .    @ .  ++   ",
"  .  @  @     @  .       .      ",
" .  +@. @@   +   .  @@          ",
" .  + .. @   +  .     +    @@   ",
" .  +    @   +   .    ++   @    ",
"            +    .         @    ",
"      ++    ++    .     .       ",
"       ++.   + .      + . ++@   ",
"   @+ .  .  @@ ..      + . +@   ",
"    + ..@@    + .  @+   @   @   ",
"    +  .@     ++   @+   @   @   ",
" .         .   +    +    @      ",
" .         .          .       . ",
" ..        .         .      ..  ",
"           .                    "};
