/* XPM */
static char * patr_xpm[] = {
"32 32 9 1",
" 	c #FF0000",
".	c #5A811D",
"+	c #689A1B",
"@	c #345107",
"#	c #4B6423",
"$	c #000000",
"%	c #4F2C14",
"&	c #885B39",
"*	c #690000",
"                                ",
"  ..+@@@...@@+...........@....  ",
" .#.......@.............+.@.++. ",
" @#+....++@.....+..#....+.@.+.. ",
" @.#+...#+....##+...#..+...#.## ",
" .@.+...#++.$$$$+....@....##..# ",
" .++.+@@..+.$%%$......@..##...# ",
" ..+.$$$$$$$$%&$............... ",
" ...$$&&******&$$.............. ",
" @+.$&&&**$$****$$...........@. ",
" .+.$&&**********$$.#....##.#@. ",
" ..+$&************$$$$$$$....@. ",
" ...$&******************$$+..@. ",
" ...$$$$$$$$*************$.+... ",
" .....+.#..$$*******&&***$..+.. ",
" +.##.+.##..$************$..... ",
" ...#.+..#..$*****&&**&&*$##... ",
" ...........$$***********$$@@.. ",
" .+..#..#....$************$.... ",
" +..@#+.##...$%**$$$$****%$$... ",
" +..@.++.#..$$%%$$$.$$$*%%%$#.. ",
" +..@....#..$%%%$$$..$$$%%%$... ",
" ...........$%%$$$$.$$$$%%$$... ",
" .....@@....$%$$.$$.$$.$%%$.... ",
" ......@@+..$$$+......@$$$$@#.. ",
" ..#@.+..+..##.++......@.+.@#.. ",
" ...@.++##....@.+..#@...#...#.. ",
" ...@..+#.....@@...#@...#...#.. ",
" +.........+...@....@....#..... ",
" +.........+..........+.......+ ",
"  +........+.........+......++  ",
"                                "};
