/* XPM */
static char * rock_xpm[] = {
"32 32 771 2",
"  	c #443424",
". 	c #433323",
"+ 	c #443522",
"@ 	c #473823",
"# 	c #40311E",
"$ 	c #413122",
"% 	c #413124",
"& 	c #43322A",
"* 	c #3C2D26",
"= 	c #483934",
"- 	c #40312E",
"; 	c #423330",
"> 	c #453633",
", 	c #3B2C25",
"' 	c #3E3027",
") 	c #3E3023",
"! 	c #433326",
"~ 	c #3F2F22",
"{ 	c #453528",
"] 	c #423225",
"^ 	c #3A2A1D",
"/ 	c #3F2E26",
"( 	c #43322B",
"_ 	c #473531",
": 	c #4D372C",
"< 	c #443123",
"[ 	c #403020",
"} 	c #413622",
"| 	c #3E331F",
"1 	c #352A18",
"2 	c #473A2A",
"3 	c #3F2F1F",
"4 	c #9A8A7A",
"5 	c #968774",
"6 	c #948572",
"7 	c #988976",
"8 	c #948475",
"9 	c #706053",
"0 	c #705F55",
"a 	c #6E6053",
"b 	c #6D5F54",
"c 	c #65574C",
"d 	c #695B50",
"e 	c #6F6156",
"f 	c #756858",
"g 	c #938673",
"h 	c #948872",
"i 	c #9F8F7F",
"j 	c #655548",
"k 	c #6E5D55",
"l 	c #716059",
"m 	c #7E6D66",
"n 	c #5F4E46",
"o 	c #6D5C52",
"p 	c #735C54",
"q 	c #786459",
"r 	c #948474",
"s 	c #918471",
"t 	c #9C917B",
"u 	c #978C78",
"v 	c #8C7F6E",
"w 	c #423223",
"x 	c #413121",
"y 	c #90816E",
"z 	c #857663",
"A 	c #908070",
"B 	c #9A8A7B",
"C 	c #6C5C4F",
"D 	c #6E5E51",
"E 	c #76685D",
"F 	c #716358",
"G 	c #726459",
"H 	c #746659",
"I 	c #6F6252",
"J 	c #6F624F",
"K 	c #968A74",
"L 	c #90846C",
"M 	c #8A7F63",
"N 	c #8D816B",
"O 	c #706255",
"P 	c #6C5D58",
"Q 	c #685956",
"R 	c #64554E",
"S 	c #726457",
"T 	c #746756",
"U 	c #725E55",
"V 	c #705E52",
"W 	c #998979",
"X 	c #8B7F69",
"Y 	c #958973",
"Z 	c #91856F",
"` 	c #968976",
" .	c #423222",
"..	c #918171",
"+.	c #8F7F6F",
"@.	c #9C8C7C",
"#.	c #625243",
"$.	c #6B5B4C",
"%.	c #675853",
"&.	c #645550",
"*.	c #675851",
"=.	c #64564D",
"-.	c #625449",
";.	c #66584B",
">.	c #968978",
",.	c #998C7B",
"'.	c #9E927A",
").	c #9E927C",
"!.	c #6C5F4F",
"~.	c #64564B",
"{.	c #6E6055",
"].	c #65574A",
"^.	c #6B5E4E",
"/.	c #6A594F",
"(.	c #938373",
"_.	c #968772",
":.	c #9D9179",
"<.	c #90846E",
"[.	c #938471",
"}.	c #423320",
"|.	c #968677",
"1.	c #918172",
"2.	c #7C6C5C",
"3.	c #6D5D4D",
"4.	c #72635C",
"5.	c #70615A",
"6.	c #6E6057",
"7.	c #6A5C4F",
"8.	c #706353",
"9.	c #736656",
"0.	c #8A7D6C",
"a.	c #8F8271",
"b.	c #978B7B",
"c.	c #8A7F6D",
"d.	c #6E634D",
"e.	c #6A5F49",
"f.	c #655A44",
"g.	c #766B57",
"h.	c #655949",
"i.	c #6E6256",
"j.	c #746757",
"k.	c #988972",
"l.	c #998A73",
"m.	c #92836C",
"n.	c #8F806D",
"o.	c #433421",
"p.	c #C2B2A3",
"q.	c #685849",
"r.	c #736354",
"s.	c #726252",
"t.	c #8B7C69",
"u.	c #918473",
"v.	c #8F836B",
"w.	c #958971",
"x.	c #8D8169",
"y.	c #6E624A",
"z.	c #665A42",
"A.	c #6A5D54",
"B.	c #6D6153",
"C.	c #BFB49E",
"D.	c #C7BEA1",
"E.	c #B7AE8F",
"F.	c #B9AF94",
"G.	c #C2B7A3",
"H.	c #BFB3A5",
"I.	c #C0B5A3",
"J.	c #B6A996",
"K.	c #93846D",
"L.	c #918369",
"M.	c #988871",
"N.	c #9E8D79",
"O.	c #958673",
"P.	c #3D2D1D",
"Q.	c #C7B7A8",
"R.	c #645447",
"S.	c #726255",
"T.	c #6A5A4B",
"U.	c #615141",
"V.	c #A0917C",
"W.	c #92866C",
"X.	c #94896D",
"Y.	c #978B71",
"Z.	c #998D75",
"`.	c #685C46",
" +	c #685B48",
".+	c #655B51",
"++	c #72695A",
"@+	c #BAB29D",
"#+	c #B6AF95",
"$+	c #C1BA9D",
"%+	c #B8B194",
"&+	c #ACA589",
"*+	c #B5AE92",
"=+	c #BEB69F",
"-+	c #B9AF96",
";+	c #8D8167",
">+	c #998970",
",+	c #9A8A73",
"'+	c #978672",
")+	c #988878",
"!+	c #47372A",
"~+	c #473727",
"{+	c #BCAC9D",
"]+	c #6D5D50",
"^+	c #6F5F52",
"/+	c #6E5E4E",
"(+	c #978873",
"_+	c #90816A",
":+	c #938675",
"<+	c #928572",
"[+	c #998D77",
"}+	c #8B7E6B",
"|+	c #978A79",
"1+	c #67594C",
"2+	c #73655A",
"3+	c #685F4E",
"4+	c #665D4C",
"5+	c #B9B09F",
"6+	c #B7AF9C",
"7+	c #BAB29B",
"8+	c #B7B093",
"9+	c #C0BA98",
"0+	c #BDB793",
"a+	c #B3AE91",
"b+	c #BAB095",
"c+	c #91866A",
"d+	c #9A8A70",
"e+	c #94826C",
"f+	c #8A7967",
"g+	c #978577",
"h+	c #3D2C22",
"i+	c #46352D",
"j+	c #BAAD8D",
"k+	c #79695A",
"l+	c #6A5952",
"m+	c #716056",
"n+	c #96886E",
"o+	c #95876A",
"p+	c #96886D",
"q+	c #91806E",
"r+	c #958271",
"s+	c #8D7C68",
"t+	c #9B8B7B",
"u+	c #64574E",
"v+	c #6C615D",
"w+	c #6D5F5F",
"x+	c #6B6157",
"y+	c #BDB79F",
"z+	c #B9B697",
"A+	c #BBB79A",
"B+	c #BBB59D",
"C+	c #B7AF98",
"D+	c #BBB198",
"E+	c #C0B69B",
"F+	c #BAAF99",
"G+	c #9D927E",
"H+	c #91876E",
"I+	c #92896C",
"J+	c #92886D",
"K+	c #8D826E",
"L+	c #43372B",
"M+	c #34231B",
"N+	c #9E9171",
"O+	c #6C5C4D",
"P+	c #6B5A53",
"Q+	c #9C8E74",
"R+	c #97896E",
"S+	c #9A8C72",
"T+	c #9A8975",
"U+	c #978770",
"V+	c #998C79",
"W+	c #45392D",
"X+	c #4A3F3D",
"Y+	c #463A3A",
"Z+	c #4A4036",
"`+	c #B3AD95",
" @	c #B3B091",
".@	c #B6B194",
"+@	c #B2AA93",
"@@	c #978C76",
"#@	c #968A72",
"$@	c #8A8065",
"%@	c #988D77",
"&@	c #B6AB97",
"*@	c #BFB59C",
"=@	c #BFB699",
"-@	c #B7AD92",
";@	c #938874",
">@	c #42362A",
",@	c #9B8E6E",
"'@	c #716152",
")@	c #74635C",
"!@	c #6E5D53",
"~@	c #908268",
"{@	c #91826B",
"]@	c #91826D",
"^@	c #92836E",
"/@	c #8B7D63",
"(@	c #9B8D72",
"_@	c #3B2F23",
":@	c #453A38",
"<@	c #443A39",
"[@	c #463E33",
"}@	c #BBB698",
"|@	c #BEB79B",
"1@	c #BEB39D",
"2@	c #978D72",
"3@	c #928771",
"4@	c #BAAF9B",
"5@	c #BAB194",
"6@	c #C1B79C",
"7@	c #918672",
"8@	c #44382C",
"9@	c #46352E",
"0@	c #938666",
"a@	c #6D5C54",
"b@	c #6B5A52",
"c@	c #93846F",
"d@	c #978875",
"e@	c #948570",
"f@	c #8C8066",
"g@	c #9A8F73",
"h@	c #978D74",
"i@	c #3F352B",
"j@	c #473B3B",
"k@	c #443C3A",
"l@	c #453F33",
"m@	c #B8B29A",
"n@	c #B6AF92",
"o@	c #B9AD97",
"p@	c #998972",
"q@	c #91856B",
"r@	c #8F836D",
"s@	c #C2B5A2",
"t@	c #C1B59D",
"u@	c #B6AB8F",
"v@	c #BCB096",
"w@	c #908370",
"x@	c #47392E",
"y@	c #47362F",
"z@	c #948767",
"A@	c #6C5C4C",
"B@	c #736258",
"C@	c #73625A",
"D@	c #8D7D6D",
"E@	c #908071",
"F@	c #99897A",
"G@	c #918474",
"H@	c #948A71",
"I@	c #867E69",
"J@	c #4E443A",
"K@	c #493D3D",
"L@	c #433B39",
"M@	c #4C4439",
"N@	c #B6AE97",
"O@	c #BDB497",
"P@	c #BFB399",
"Q@	c #B8A994",
"R@	c #9C8B77",
"S@	c #96866F",
"T@	c #8E8268",
"U@	c #928670",
"V@	c #BBAE9B",
"W@	c #B8AD91",
"X@	c #B8AC92",
"Y@	c #978A77",
"Z@	c #483A2F",
"`@	c #412F2B",
" #	c #938568",
".#	c #6A5951",
"+#	c #6F5F50",
"@#	c #6C5E55",
"##	c #4D4037",
"$#	c #473D31",
"%#	c #443B2A",
"&#	c #463D2E",
"*#	c #453A34",
"=#	c #483C3C",
"-#	c #453B3A",
";#	c #463C32",
">#	c #948973",
",#	c #94866C",
"'#	c #95866F",
")#	c #978871",
"!#	c #95876C",
"~#	c #998B71",
"{#	c #8D7E6B",
"]#	c #42302C",
"^#	c #746454",
"/#	c #75645A",
"(#	c #705F58",
"_#	c #6F5E54",
":#	c #6E5F5A",
"<#	c #4B3D3C",
"[#	c #453B39",
"}#	c #423932",
"|#	c #40372E",
"1#	c #4A3F3B",
"2#	c #4B3F3F",
"3#	c #4C3F36",
"4#	c #988C76",
"5#	c #958B72",
"6#	c #8D7F65",
"7#	c #45342A",
"8#	c #463430",
"9#	c #756555",
"0#	c #715F5B",
"a#	c #6C5B51",
"b#	c #6F605D",
"c#	c #493D41",
"d#	c #43383C",
"e#	c #403732",
"f#	c #483D3B",
"g#	c #4D3F3F",
"h#	c #4B3D34",
"i#	c #928268",
"j#	c #93836A",
"k#	c #948D73",
"l#	c #96866D",
"m#	c #9B8A76",
"n#	c #8D7C6A",
"o#	c #92826B",
"p#	c #9C8C72",
"q#	c #9A8A71",
"r#	c #938270",
"s#	c #443228",
"t#	c #463933",
"u#	c #918579",
"v#	c #685D4B",
"w#	c #6B5F51",
"x#	c #70635B",
"y#	c #685B52",
"z#	c #695D51",
"A#	c #695C53",
"B#	c #473D34",
"C#	c #423A2D",
"D#	c #3F3826",
"E#	c #4A4434",
"F#	c #413831",
"G#	c #4C4241",
"H#	c #453830",
"I#	c #4A3E2E",
"J#	c #93836C",
"K#	c #95856C",
"L#	c #998874",
"M#	c #8D7E67",
"N#	c #8F8468",
"O#	c #413529",
"P#	c #3A2F1D",
"Q#	c #B3AA89",
"R#	c #BDB493",
"S#	c #BEB598",
"T#	c #BDB39A",
"U#	c #BCB297",
"V#	c #C2B99C",
"W#	c #B7AC96",
"X#	c #BAAF9D",
"Y#	c #998E7C",
"Z#	c #8E836D",
"`#	c #928773",
" $	c #6F6559",
".$	c #746963",
"+$	c #6D635A",
"@$	c #716555",
"#$	c #C2B89F",
"$$	c #BFB59A",
"%$	c #BBAF97",
"&$	c #B4A892",
"*$	c #94856E",
"=$	c #93856B",
"-$	c #998876",
";$	c #92876B",
">$	c #988C72",
",$	c #B0A390",
"'$	c #403428",
")$	c #423626",
"!$	c #8A8067",
"~$	c #BBB293",
"{$	c #B8AF8E",
"]$	c #BCB394",
"^$	c #B9B093",
"/$	c #B4AB8A",
"($	c #B5AF8D",
"_$	c #988A70",
":$	c #9E8E75",
"<$	c #94846A",
"[$	c #685B4A",
"}$	c #6C5F56",
"|$	c #635A51",
"1$	c #605947",
"2$	c #BDB69C",
"3$	c #BBB498",
"4$	c #C1B6A0",
"5$	c #968A70",
"6$	c #968571",
"7$	c #958472",
"8$	c #90846A",
"9$	c #3D3125",
"0$	c #43352C",
"a$	c #8D806F",
"b$	c #C4B89E",
"c$	c #BEB395",
"d$	c #BEB298",
"e$	c #BFB496",
"f$	c #B9B590",
"g$	c #96866C",
"h$	c #937F66",
"i$	c #958166",
"j$	c #98866E",
"k$	c #6D5C4C",
"l$	c #74665D",
"m$	c #726960",
"n$	c #696250",
"o$	c #BBB59B",
"p$	c #B7B094",
"q$	c #BAB399",
"r$	c #93896E",
"s$	c #9B8B72",
"t$	c #9E8F78",
"u$	c #9B9074",
"v$	c #C7BAA7",
"w$	c #978B75",
"x$	c #BDB294",
"y$	c #BEB393",
"z$	c #BBB092",
"A$	c #B7AC90",
"B$	c #C2B895",
"C$	c #BFB999",
"D$	c #A3947D",
"E$	c #907E68",
"F$	c #9C8870",
"G$	c #978571",
"H$	c #675549",
"I$	c #6F5D59",
"J$	c #6A6158",
"K$	c #68614F",
"L$	c #B2AB91",
"M$	c #B9AE98",
"N$	c #93826E",
"O$	c #8F7E6C",
"P$	c #93886C",
"Q$	c #B8AB98",
"R$	c #3F3327",
"S$	c #44332C",
"T$	c #958576",
"U$	c #95876D",
"V$	c #90816C",
"W$	c #95896F",
"X$	c #9B8F79",
"Y$	c #B9AC99",
"Z$	c #C9BDA5",
"`$	c #BDAE9B",
" %	c #6E5C5A",
".%	c #72655D",
"+%	c #695D4D",
"@%	c #948870",
"#%	c #988974",
"$%	c #94846B",
"%%	c #988775",
"&%	c #968770",
"*%	c #BAAD9A",
"=%	c #44322E",
"-%	c #948477",
";%	c #978778",
">%	c #98877D",
",%	c #BBB39E",
"'%	c #B4AE96",
")%	c #B8B298",
"!%	c #675B4B",
"~%	c #685952",
"{%	c #6F5E57",
"]%	c #69594A",
"^%	c #988672",
"/%	c #96846E",
"(%	c #96846C",
"_%	c #978674",
":%	c #958A6E",
"<%	c #BDB09D",
"[%	c #483727",
"}%	c #91816A",
"|%	c #978869",
"1%	c #928364",
"2%	c #98886F",
"3%	c #BEB8A0",
"4%	c #B7B79B",
"5%	c #B3B796",
"6%	c #BDBC9D",
"7%	c #665E49",
"8%	c #706257",
"9%	c #705D57",
"0%	c #6A584A",
"a%	c #9A8872",
"b%	c #928068",
"c%	c #95806B",
"d%	c #988370",
"e%	c #97826D",
"f%	c #9C866F",
"g%	c #92816D",
"h%	c #9F9478",
"i%	c #C5B8A5",
"j%	c #403023",
"k%	c #9A8B74",
"l%	c #8F8069",
"m%	c #BAAF93",
"n%	c #BAB28E",
"o%	c #6B605E",
"p%	c #665C53",
"q%	c #6C5E51",
"r%	c #706352",
"s%	c #93876F",
"t%	c #94886E",
"u%	c #988B78",
"v%	c #998E72",
"w%	c #968B6B",
"x%	c #877C5E",
"y%	c #A0947A",
"z%	c #C1B4A3",
"A%	c #453526",
"B%	c #928272",
"C%	c #8E8066",
"D%	c #8E7F68",
"E%	c #958671",
"F%	c #9D8E79",
"G%	c #9C8D76",
"H%	c #92846A",
"I%	c #8F846E",
"J%	c #958C6F",
"K%	c #4A3E42",
"L%	c #4E4040",
"M%	c #50413E",
"N%	c #6F605B",
"O%	c #6D5F56",
"P%	c #6C5E53",
"Q%	c #6F5E56",
"R%	c #6E5D56",
"S%	c #73615D",
"T%	c #6C5F4E",
"U%	c #726650",
"V%	c #B5AA8C",
"W%	c #CBC0A2",
"X%	c #413424",
"Y%	c #493929",
"Z%	c #93856A",
"`%	c #988C74",
" &	c #8B7E6D",
".&	c #908372",
"+&	c #918674",
"@&	c #968C73",
"#&	c #4B3B46",
"$&	c #4A3B3E",
"%&	c #443838",
"&&	c #463B37",
"*&	c #6A5D57",
"=&	c #6B5D54",
"-&	c #6C5953",
";&	c #6E5B57",
">&	c #6D5F52",
",&	c #6A5D4C",
"'&	c #C0B49A",
")&	c #B3A88C",
"!&	c #C0B49C",
"~&	c #413423",
"{&	c #998B70",
"]&	c #9C8E71",
"^&	c #94866B",
"/&	c #8A7E64",
"(&	c #968B79",
"_&	c #8F856C",
":&	c #44343E",
"<&	c #443635",
"[&	c #453C37",
"}&	c #675D53",
"|&	c #6E5E4F",
"1&	c #6E5A51",
"2&	c #705C55",
"3&	c #6A5C51",
"4&	c #6A5D4D",
"5&	c #C1B4A1",
"6&	c #C7BBA3",
"7&	c #B9AD95",
"8&	c #C4B8A0",
"9&	c #403322",
"0&	c #453525",
"a&	c #988A6F",
"b&	c #9A8C71",
"c&	c #897B60",
"d&	c #9B8C75",
"e&	c #8F8667",
"f&	c #928968",
"g&	c #938970",
"h&	c #958A6C",
"i&	c #49393A",
"j&	c #51433A",
"k&	c #493F3D",
"l&	c #493E38",
"m&	c #67594E",
"n&	c #6B5B4E",
"o&	c #6F5D53",
"p&	c #6E5A53",
"q&	c #705B56",
"r&	c #685A4D",
"s&	c #B2A595",
"t&	c #BFB29F",
"u&	c #B7AA97",
"v&	c #AFA28F",
"w&	c #9E9180",
"x&	c #423524",
"y&	c #BDAE99",
"z&	c #B8A996",
"A&	c #BDB495",
"B&	c #BEB596",
"C&	c #BDB199",
"D&	c #C0B693",
"E&	c #6B5C59",
"F&	c #6D6050",
"G&	c #695F55",
"H&	c #6A6152",
"I&	c #8F8472",
"J&	c #958875",
"K&	c #9C8D78",
"L&	c #9E8F7C",
"M&	c #988777",
"N&	c #95877C",
"O&	c #938578",
"P&	c #655848",
"Q&	c #6E6151",
"R&	c #B9AC9C",
"S&	c #443629",
"T&	c #48372F",
"U&	c #8E7E71",
"V&	c #8D7E69",
"W&	c #C2B2A2",
"X&	c #B9B298",
"Y&	c #BBB09E",
"Z&	c #BCB19F",
"`&	c #B5AA8A",
" *	c #766462",
".*	c #726253",
"+*	c #6E6252",
"@*	c #93876D",
"#*	c #978C70",
"$*	c #96887B",
"%*	c #998B7E",
"&*	c #716356",
"**	c #695B4E",
"=*	c #C7B9AE",
"-*	c #413328",
";*	c #45342C",
">*	c #3E2E21",
",*	c #463626",
"'*	c #4C3C2C",
")*	c #403825",
"!*	c #3F3724",
"~*	c #41342B",
"{*	c #3A2E22",
"]*	c #46382B",
"^*	c #483D21",
"/*	c #3E2C2C",
"(*	c #463629",
"_*	c #443530",
":*	c #392B22",
"<*	c #483A2D",
"[*	c #3D3020",
"}*	c #3C2F1E",
"|*	c #3F3222",
"1*	c #403323",
"2*	c #413326",
"3*	c #423427",
"4*	c #44362B",
"5*	c #44362D",
"6*	c #3F3128",
"  . + @ # $ % & * = - ; > , ' ) ! ~ { ] ^ / ( _ : < [ } | 1 2 ] ",
"3 4 5 6 7 8 9 0 a b c d e f g h 5 i j k l m n o p q r s t u v w ",
"x 4 y z A B C D E F G H I J K L M N O P Q R S T U V W X Y Z `  .",
". ..i +.@.4 #.$.%.&.*.=.-.;.>.,.'.).!.~.e {.].^./.j (._.:.<.[.}.",
". B B |.1...2.3.4.5.6.7.8.9.0.a.b.c.d.e.f.g.h.i.;.j.[.k.l.m.n.o.",
"x p.q.$.r.s.t.[.u.s <.v.w.x.y.z.A.B.C.D.E.F.G.H.I.J.K.L.M.N.O.x ",
"P.Q.R.S.T.U.5 V.Z L W.X.Y.Z.`. +.+++@+#+$+%+&+*+=+-+;+>+,+'+)+!+",
"~+{+]+]+^+/+(+_+:+<+[+K }+|+1+2+3+4+5+6+7+8+9+0+a+b+c+d+e+f+g+h+",
"i+j+k+l+m+D n+o+p+K.q+r+s+t+u+v+w+x+y+z+A+B+C+D+E+F+G+H+I+J+K+L+",
"M+N+O+P+0 m+Q+R+S+l.T+'+U+V+W+X+Y+Z+`+ @.@+@@@#@$@%@&@*@=@-@;@>@",
"& ,@'@)@!@!@l.~@{@]@^@/@(@:._@:@<@[@y+}@|@1@Y k.2@3@4@D+5@6@7@8@",
"9@0@T.a@/.b@c@^@6 d@e@f@g@h@i@j@k@l@m@n@b+o@_.p@q@r@s@t@u@v@w@x@",
"y@z@A@k B@C@D@(.E@F@G@3@H@I@J@K@L@M@N@O@P@Q@R@S@T@U@V@t@W@X@Y@Z@",
"`@ #/+.#m+l++#r.^+@###$#%#&#*#=#-#;#>#c+,#c@c@'#n+^@O.)#!#~#{#h+",
"]# #^#a@/#(#]+o _#:#<#[#}#|#1#2#K@3#4#R+>+_.Y 5#6#_.[.)#R+,#y 7#",
"8# #9#b@0 0#_#a#m+b#c#d#L@e#f#K@g#h#(+i#j#c@3@k#l#m#n#o#p#q#r#s#",
"t#u#v#v#w#x#y#z#e A#B#C#D#E#F#G#H#I#x.T@m.e@J#>+K#L#r#M#N#Y.Y@O#",
"P#h@Q#R#S#T#U#V#W#X#b.Y#Z#`# $.$+$@$#$$$%$&$*$=$K#R@-${@;$>$,$'$",
")$!$~${$]$b+^$/$($S#_$:$<$n+[$}$|$1$2$3$*@4$#@5$j#6$7$*$X.8$s@9$",
"0$a$b$c$d$%$P@e$f$]$g$h$i$j$k$l$m$n$o$p$q$1@H@r$s$'+7$t$u$8$v$8@",
") w$x$y$z$A$z$B$C$F.D$E$F$G$H$I$J$K$L$*+T#M$Z.8$K#N$O$k.P$;+Q$R$",
"S$T$*$U$_.5 V${@W$X$Y$J.Z$`$B@ %.%+%5#8$@%#%*$$%l#m#%%&%X.5$*%'$",
"=%-%6 5 ;%>%-%T$S@<+,%'%A+)%!%~%{%]%)#$%U+^%/%(%j#6$_%{@:%8$<%9$",
"[%}%|%1%j#6$6$2%(%]@3%4%5%6%7%8%9%0%a%b%c%d%e%f%>+g%%%&%h%f@i%L+",
"j%E@y k%l%m.#%[.~#!#t@m%V#n%o%p%q%r%g s%t%w.h u%` x.v%w%x%y%z%) ",
"A%B%e@l.C%D%E%F%G%H%<+r@I%J%K%1#L%M%N%O%P%Q%R%S%T%U%v@V%W%X@w@X%",
"Y%5 K.Z%Z%!#*$K.[+`% &.&+&@&#&$&%&&&*&=&o k -&;&>&,&%$'&)&!&w@~&",
". #%,#{&]&^&~#m./&W.w@.&(&_&:&<&[&B#}&7.|&V 1&2&3&4&5&6&7&8&` 9&",
"0&d@M#a&b&c&d&*$e&f&g&Z#Y h&i&j&k&l&p%m&n&o&p&q&F r&s&t&u&v&w&x&",
"j%)+d@&%=$m.y&z&A&B&T#C.C&D&E&F&G&H&I&J&K&L&M&g+N&O&!.P&,&Q&R&S&",
"T&U&t+6 V&6 W&Q.X&q$Y&Z&Y$`& *.*+*J v.@*#*S+K.]@$*%*H >&&***=*-*",
"S$;*>*,*'*x A%j%)*!*~*{*]*^*/*(*_*:*<*[*}*|*) -*[*1*2*3*4*-*5*6*"};
