/* XPM */
static char * sombrero_xpm[] = {
"32 32 20 1",
" 	c #5A811D",
".	c #E0C211",
"+	c #689A1B",
"@	c #345107",
"#	c #4B6423",
"$	c #A26C48",
"%	c #CB895C",
"&	c #DD9664",
"*	c #51341F",
"=	c #C08256",
"-	c #546736",
";	c #AC744C",
">	c #AD423D",
",	c #BB4842",
"'	c #C44C45",
")	c #DA564F",
"!	c #62832F",
"~	c #78A03C",
"{	c #87B445",
"]	c #97C84D",
" .............................. ",
"..  +@@@   @@+           @    ..",
". #       @             + @ ++ .",
".@#+    ++@     +  #    + @ +  .",
".@ #+   #+    ##+   #  +   # ##.",
". @ +   #++  @@ +    @    ##  #.",
". ++ +@@  + +  $$     @  ##   #.",
".  +   @     +$%&$             .",
".            *=%&&$            .",
".@+ - +#    #*=%&&$          @ .",
". + ##+ #  @*=%&&&&$#    ## #@ .",
".  + #++#  @*=%&&&&$  + #    @ .",
".    #  #  *=%&&&&&&$ +# ++  @ .",
".    @@    *=%&&&&&&$ +    +   .",
". **********$$$$$$$$$$$$$$$$$$ .",
".+*;;;====%%&&&&&&&&&&&&&&&&&$ .",
". *;;;====%%&&&&&&&&&&&&&&&&&$ .",
". *>>>,,,,'')))))))))))))))))$ .",
". *!>!,~~,{'])])])])])]))])])$ .",
".+ *>>>,,,,'')))))))))))))))$  .",
".+ *;;;====%%&&&&&&&&&&&&&&&$  .",
".+  *;;;;===%%&&&&&&&&&&&&&$   .",
".    *******$$$$$$$$$$$$$$$#   .",
".     @@    @@    +     +      .",
".      @@+   @ +      @ + @@#  .",
".  #@ +  +  ## ++      @ + @#  .",
".   @ ++##    @ +  #@   #   #  .",
".   @  +#     @@   #@   #   #  .",
".+         +   @    @    #     .",
".+         +          +       +.",
"..+        +         +      ++..",
" .............................. "};
