/* XPM */
static char * tacos_xpm[] = {
"32 32 14 1",
" 	c #5A811D",
".	c #00DEFF",
"+	c #689A1B",
"@	c #345107",
"#	c #4B6423",
"$	c #93C355",
"%	c #AE8609",
"&	c #546736",
"*	c #F9CC37",
"=	c #CB442E",
"-	c #8E6E08",
";	c #D9A504",
">	c #783704",
",	c #343434",
" .............................. ",
"..  +@@@   @@+           @    ..",
". #       @             + @ ++ .",
".@#+    ++@     +  #    + @ +  .",
".@ #+   #+    ##+   #  +   # ##.",
". @ +   #++  @@ +    @    ##  #.",
". ++ +@@  + +         @  ##   #.",
".  +   @     +                 .",
".          $%%%$%%% $$         .",
".@+ & +# %*$=**$%%-%$*       @ .",
". + ##$$%$$$*=$$$==$$==% ## #@ .",
".  + #$$%$=$$==$==**$$=-%    @ .",
".    %*$$$==$;;;;;$;$$$*$%+  @ .",
". $$%=*$$$;;;;;;;$;;;;;;;;;+   .",
".  *$$=$;$;;;;;%;;;;;%;;;;%;+  .",
".+%*$$$;;$;%;;;;;;;;;;;;;;;;;  .",
". *=>$;;;;;;;;;;;;;;;;;;;;;;;  .",
".%->>;;;;;;;;;;%;;;;;;;;;%;;;; .",
".%>>;;;;%;;;;;;;;;;;;;;;;;;;;;,.",
".%>>;;;;;;;;;;;;;;;;;%;;;;;%;;,.",
".%>;;%;;;;;;;;;;;;;;;;;;;;;;;,,.",
".+;;;;;;;;;;;;;%;;;;;;;;;;;;,, .",
".  ,,,,,,,,,,,,,,,,,,,,,,,,,,  .",
".     @@    @@    +     +      .",
".      @@+   @ +      @ + @@#  .",
".  #@ +  +  ## ++      @ + @#  .",
".   @ ++##    @ +  #@   #   #  .",
".   @  +#     @@   #@   #   #  .",
".+         +   @    @    #     .",
".+         +          +       +.",
"..+        +         +      ++..",
" .............................. "};
